<svg width="100" height="100" viewBox="0 0 100 100" fill="none" xmlns="http://www.w3.org/2000/svg">
  <rect width="100" height="100" rx="8" fill="#F5F5F7"/>
  <path d="M35 40C35 37.2386 37.2386 35 40 35H60C62.7614 35 65 37.2386 65 40V60C65 62.7614 62.7614 65 60 65H40C37.2386 65 35 62.7614 35 60V40Z" stroke="#86868B" stroke-width="2"/>
  <path d="M35 55L43 47C43.5304 46.4696 44.2935 46.1716 45.0858 46.1716C45.8781 46.1716 46.6412 46.4696 47.1716 47L55 55" stroke="#86868B" stroke-width="2" stroke-linecap="round"/>
  <circle cx="45" cy="43" r="3" fill="#86868B"/>
  <path d="M45 55L53 47C53.5304 46.4696 54.2935 46.1716 55.0858 46.1716C55.8781 46.1716 56.6412 46.4696 57.1716 47L65 55" stroke="#86868B" stroke-width="2" stroke-linecap="round"/>
</svg>