<svg xmlns="http://www.w3.org/2000/svg" viewBox="0 0 24 24"><path d="M21.395 15.035a39.548 39.548 0 0 0-.803-2.264l-1.079-2.695c.001-.032.014-.562.014-.836C19.527 4.632 17.316 0 12 0S4.473 4.632 4.473 9.241c0 .274.013.804.014.836l-1.08 2.695a38.97 38.97 0 0 0-.802 2.264c-1.021 3.283-.69 4.643-.438 4.673.54.065 2.103-2.472 2.103-2.472 0 1.469.756 3.387 2.394 4.771-.612.188-1.363.479-1.845.835-.434.32-.379.646-.301.778.343.578 5.883.369 7.482.189 1.6.18 7.14.389 7.483-.189.078-.132.132-.458-.301-.778-.483-.356-1.233-.647-1.846-.835 1.637-1.384 2.393-3.302 2.393-4.771 0 0 1.563 2.537 2.103 2.472.251-.03.581-1.39-.439-4.673zM12.662 4.846c.039-1.052.659-1.878 1.385-1.846s1.281.912 1.242 1.964c-.039 1.051-.659 1.878-1.385 1.846s-1.282-.912-1.242-1.964zM9.954 3c.725-.033 1.345.794 1.384 1.846.04 1.052-.517 1.931-1.242 1.963-.726.033-1.346-.794-1.385-1.846C8.672 3.912 9.228 3.033 9.954 3zM7.421 8.294c.194-.43 2.147-.908 4.566-.908h.026c2.418 0 4.372.479 4.566.908a.14.14 0 0 1 .014.061c0 .031-.01.059-.026.083-.163.238-2.333 1.416-4.553 1.416h-.026c-2.221 0-4.39-1.178-4.553-1.416a.136.136 0 0 1-.014-.144z"/></svg>