<svg xmlns="http://www.w3.org/2000/svg" viewBox="0 0 24 24"><path d="M8.691 2.188C3.891 2.188 0 5.476 0 9.53c0 2.212 1.17 4.203 3.002 5.55a.59.59 0 0 1 .213.665l-.39 1.48c-.019.07-.048.141-.048.213 0 .163.13.295.29.295a.326.326 0 0 0 .167-.054l1.903-1.114a.864.864 0 0 1 .717-.098 10.16 10.16 0 0 0 2.837.403c.276 0 .543-.027.811-.05-.857-2.578.157-4.972 1.932-6.446 1.703-1.415 3.882-1.98 5.853-1.838-.576-3.583-4.196-6.348-8.596-6.348zM5.785 5.991c.642 0 1.162.529 1.162 1.182 0 .653-.52 1.182-1.162 1.182-.642 0-1.162-.529-1.162-1.182 0-.653.52-1.182 1.162-1.182zm5.813 0c.642 0 1.162.529 1.162 1.182 0 .653-.52 1.182-1.162 1.182-.642 0-1.162-.529-1.162-1.182 0-.653.52-1.182 1.162-1.182zm5.34 2.99c-1.972-.307-3.682.314-4.967 1.474-1.08.975-1.663 2.256-1.663 3.595 0 3.454 3.285 6.262 7.332 6.262.82 0 1.61-.114 2.35-.332a.722.722 0 0 1 .595.082l1.58.923a.272.272 0 0 0 .139.045c.133 0 .24-.11.24-.246 0-.06-.024-.119-.04-.177l-.324-1.227a.489.489 0 0 1 .177-.551C23.406 17.692 24.4 16 24.4 14.135c0-3.344-3.059-6.087-7.122-6.154h-.34zm-2.093 3.317c.533 0 .965.439.965.981 0 .542-.432.981-.965.981s-.965-.439-.965-.981c0-.542.432-.981.965-.981zm4.823 0c.533 0 .965.439.965.981 0 .542-.432.981-.965.981s-.965-.439-.965-.981c0-.542.432-.981.965-.981z"/></svg>