<svg xmlns="http://www.w3.org/2000/svg" viewBox="0 0 24 24"><path d="M10.098 20.323c-3.977.391-7.414-1.406-7.672-4.02-.259-2.609 2.759-5.047 6.74-5.441 3.979-.394 7.413 1.404 7.671 4.018.259 2.6-2.759 5.049-6.737 5.439l-.002.004zM9.05 17.219c-.384.616-1.208.884-1.829.602-.612-.279-.793-.991-.406-1.593.379-.595 1.176-.861 1.793-.601.622.263.82.972.442 1.592zm1.27-1.627c-.141.237-.449.353-.689.253-.236-.096-.313-.361-.177-.586.138-.227.436-.346.672-.24.239.09.334.355.18.601l.014-.028zm.176-2.719c-1.893-.493-4.033.45-4.857 2.118-.836 1.704-.026 3.591 1.886 4.21 1.983.64 4.318-.341 5.132-2.179.8-1.793-.201-3.642-2.161-4.149zm7.563-1.224c-.346-.105-.57-.18-.405-.615.375-.977.42-1.804 0-2.404-.781-1.112-2.915-1.053-5.364-.03 0 0-.766.331-.571-.271.376-1.217.315-2.224-.27-2.809-1.338-1.337-4.869.045-7.888 3.08C1.309 10.87 0 13.273 0 15.348c0 3.981 5.099 6.395 10.086 6.395 6.536 0 10.888-3.801 10.888-6.82 0-1.822-1.547-2.854-2.915-3.284v.01zm1.908-5.092c-.766-.856-1.908-1.187-2.96-.962.255-.03.511-.045.766-.045 1.193 0 2.221.421 2.748 1.267.527.841.511 1.804-.015 2.705.135-.301.195-.631.195-.961 0-.721-.27-1.351-.734-2.004z"/><path d="M19.763.037c-2.221-.205-4.488.857-5.414 2.644-.195.376-.015.812.36 1.007.375.195.811.016 1.006-.359.616-1.201 2.101-1.953 3.604-1.803 1.508.15 2.814 1.092 3.429 2.298.181.375.616.525.991.345.375-.181.526-.616.345-.992C23.111 1.361 21.504.227 19.763.037z"/><path d="M18.902 3.217c-1.082-.105-2.191.406-2.642 1.292-.135.271 0 .586.27.706.271.135.586 0 .706-.27.256-.496.857-.766 1.432-.706.571.075 1.067.391 1.322.886.121.256.436.346.692.24.256-.121.346-.436.24-.692-.42-.841-1.202-1.366-2.02-1.456z"/></svg>